<svg xmlns="http://www.w3.org/2000/svg" width="69.1" height="67.09" viewBox="16.47 12.44 69.1 67.09" role="img" aria-label="Posters Up">
  <g fill="none" stroke="currentColor" stroke-width="5" stroke-linecap="round" stroke-linejoin="round">
    <path d="M20 32 V20 H32"/>
    <path d="M20 64 V76 H32"/>
    <path d="M64 76 H76 V64"/>
    <path d="M76 34 V17 M70 24 L76 16 L82 24"/>
  </g>
  <g transform="rotate(-8 48 53)">
    <path d="M36 39 H60 Q63 39 63 42 V57 Q63 64 56 66 Q53 67 50 67 H36 Q33 67 33 64 V42 Q33 39 36 39 Z" fill="none" stroke="currentColor" stroke-width="2.4" stroke-linejoin="round"/>
    <path d="M50 67 Q59 67.5 63 57 Q62 63 55 65.5 Q52.5 66.4 50 67 Z" fill="none" stroke="currentColor" stroke-width="1.8" stroke-linejoin="round"/>
    <rect x="38" y="44" width="20" height="7" rx="1.5" fill="currentColor"/>
    <rect x="38" y="55" width="20" height="2.6" rx="1.3" fill="currentColor"/>
    <rect x="38" y="60" width="13" height="2.6" rx="1.3" fill="currentColor"/>
  </g>
</svg>
