<svg xmlns="http://www.w3.org/2000/svg" width="120" height="120" viewBox="0 0 120 120" role="img" aria-label="Posters Up">
  <rect x="0" y="0" width="120" height="120" fill="#7A9E82"/>
  <g transform="translate(24 24) scale(0.75)">
    <g fill="none" stroke="#E8E4DC" stroke-width="5" stroke-linecap="round" stroke-linejoin="round">
      <path d="M20 32 V20 H32"/>
      <path d="M20 64 V76 H32"/>
      <path d="M64 76 H76 V64"/>
      <path d="M76 34 V17 M70 24 L76 16 L82 24"/>
    </g>
    <g transform="rotate(-8 48 53)">
      <path d="M36 39 H60 Q63 39 63 42 V57 Q63 64 56 66 Q53 67 50 67 H36 Q33 67 33 64 V42 Q33 39 36 39 Z" fill="#E8E4DC" stroke="#1E2420" stroke-width="2.4" stroke-linejoin="round"/>
      <path d="M50 67 Q59 67.5 63 57 Q62 63 55 65.5 Q52.5 66.4 50 67 Z" fill="#C2CEC4" stroke="#1E2420" stroke-width="1.9" stroke-linejoin="round"/>
      <rect x="42" y="44" width="5" height="20" rx="1.6" fill="#7A9E82"/>
      <rect x="42" y="44" width="13" height="11" rx="5.5" fill="#7A9E82"/>
    </g>
  </g>
</svg>
